<?xml version="1.0" standalone="no"?>
<!DOCTYPE svg PUBLIC "-//W3C//DTD SVG 20010904//EN"
 "http://www.w3.org/TR/2001/REC-SVG-20010904/DTD/svg10.dtd">
<svg version="1.0" xmlns="http://www.w3.org/2000/svg"
 width="967.000000pt" height="967.000000pt" viewBox="0 0 967.000000 967.000000"
 preserveAspectRatio="xMidYMid meet">
<metadata>
Created by potrace 1.11, written by Peter Selinger 2001-2013
</metadata>
<g transform="translate(0.000000,967.000000) scale(0.100000,-0.100000)"
fill="#000000" stroke="none">
<path d="M1000 9623 c-238 -17 -460 -121 -635 -297 -153 -154 -245 -325 -287
-536 -19 -96 -19 -7784 0 -7880 42 -211 135 -386 286 -535 154 -153 325 -245
536 -287 96 -19 7784 -19 7880 0 211 42 382 134 536 287 151 149 244 324 286
535 19 96 19 7784 0 7880 -42 211 -134 382 -287 536 -142 143 -294 228 -505
282 -60 15 -368 16 -3915 17 -2117 1 -3870 0 -3895 -2z m2620 -2907 c396 -63
476 -90 669 -220 62 -42 144 -94 181 -116 84 -49 140 -111 221 -243 35 -56 89
-142 122 -190 62 -94 92 -155 162 -332 89 -225 116 -300 225 -641 133 -415
166 -507 232 -639 196 -390 495 -628 892 -710 115 -23 334 -38 461 -31 301 18
491 79 595 193 64 70 84 130 78 232 -7 114 -57 212 -142 280 -81 65 -130 89
-296 144 -244 82 -427 130 -565 146 -152 19 -395 113 -554 215 -125 81 -256
227 -323 361 -138 277 -127 737 26 1015 163 298 526 498 996 549 179 19 305
22 463 11 267 -19 450 -64 631 -156 293 -149 465 -415 510 -789 l6 -50 -352
-39 c-194 -21 -367 -41 -385 -43 -31 -5 -32 -5 -39 43 -24 163 -111 285 -247
350 -105 49 -177 65 -322 71 -296 12 -496 -78 -566 -253 -19 -48 -23 -78 -24
-164 0 -139 23 -200 109 -286 107 -107 186 -136 606 -228 133 -29 428 -104
526 -134 17 -5 98 -44 180 -85 l149 -76 137 -136 c82 -82 145 -153 158 -180
21 -43 55 -173 91 -344 33 -163 22 -389 -28 -546 -58 -184 -200 -369 -364
-475 -239 -155 -545 -234 -1000 -260 -662 -38 -1283 106 -1644 380 -266 202
-490 535 -610 905 -25 77 -56 169 -69 205 -13 36 -52 155 -86 265 -86 278 -97
310 -195 570 -95 250 -127 311 -234 455 -160 213 -198 243 -384 308 -179 63
-300 85 -427 78 -168 -9 -264 -34 -390 -103 -161 -88 -299 -231 -383 -398
-204 -402 -209 -1136 -11 -1528 102 -201 290 -383 462 -447 120 -45 171 -54
322 -53 372 2 680 127 942 381 47 46 69 61 72 51 3 -8 50 -144 105 -304 54
-159 104 -303 110 -318 6 -16 11 -34 11 -42 0 -14 -213 -156 -295 -198 -128
-64 -369 -139 -567 -176 -240 -46 -628 -48 -847 -5 -357 70 -584 186 -809 411
-202 203 -342 456 -413 748 -80 328 -91 816 -28 1170 143 795 599 1276 1327
1400 242 41 564 41 822 1z"/>
</g>
</svg>
